<svg width="37" height="35" viewBox="0 0 37 35" fill="none" xmlns="http://www.w3.org/2000/svg">
<rect y="2" width="36" height="33" rx="6" fill="#FFF9D5"/>
<path d="M4.80708 7.77273V4.90909H16.1849V7.77273H12.2474V18H8.74458V7.77273H4.80708Z" fill="#8E45DC"/>
<path d="M18.3351 25.2801L18.3351 20.2432L31.426 20.2432L31.426 25.229C31.426 26.5756 31.1639 27.7389 30.6398 28.719C30.1199 29.7034 29.3699 30.4619 28.3898 30.9946C27.4139 31.5315 26.2442 31.8 24.8806 31.8C23.5169 31.8 22.3451 31.5336 21.3649 31.001C20.3891 30.4683 19.6391 29.714 19.1149 28.7382C18.5951 27.7623 18.3351 26.6096 18.3351 25.2801ZM21.3522 23.7971L21.3522 25.1523C21.3522 25.8 21.4566 26.3518 21.6654 26.8078C21.8742 27.268 22.2343 27.6175 22.7456 27.8561C23.257 28.099 23.9686 28.2204 24.8806 28.2204C25.7925 28.2204 26.5041 28.0969 27.0155 27.8497C27.5269 27.6068 27.887 27.2488 28.0958 26.7758C28.3046 26.3071 28.409 25.7318 28.409 25.05L28.409 23.7971L21.3522 23.7971Z" fill="#8E45DC"/>
<path d="M16.509 25.8182C16.509 27.1946 16.2414 28.3557 15.7061 29.3015C15.1708 30.2433 14.4484 30.9576 13.5388 31.4446C12.6293 31.9276 11.6151 32.169 10.4962 32.169C9.36933 32.169 8.3511 31.9255 7.44154 31.4386C6.536 30.9476 5.81559 30.2312 5.28032 29.2894C4.74907 28.3436 4.48344 27.1866 4.48344 25.8182C4.48344 24.4418 4.74907 23.2827 5.28032 22.3409C5.81559 21.3951 6.536 20.6808 7.44154 20.1978C8.3511 19.7108 9.36933 19.4673 10.4962 19.4673C11.6151 19.4673 12.6293 19.7108 13.5388 20.1978C14.4484 20.6808 15.1708 21.3951 15.7061 22.3409C16.2414 23.2827 16.509 24.4418 16.509 25.8182ZM13.0559 25.8182C13.0559 25.0777 12.9573 24.4538 12.7601 23.9467C12.5669 23.4356 12.2791 23.0492 11.8968 22.7876C11.5185 22.522 11.0516 22.3892 10.4962 22.3892C9.94083 22.3892 9.47196 22.522 9.08962 22.7876C8.71131 23.0492 8.42355 23.4356 8.22634 23.9467C8.03316 24.4538 7.93657 25.0777 7.93657 25.8182C7.93657 26.5587 8.03316 27.1845 8.22634 27.6957C8.42355 28.2028 8.71131 28.5891 9.08962 28.8548C9.47196 29.1164 9.94083 29.2472 10.4962 29.2472C11.0516 29.2472 11.5185 29.1164 11.8968 28.8548C12.2791 28.5891 12.5669 28.2028 12.7601 27.6957C12.9573 27.1845 13.0559 26.5587 13.0559 25.8182Z" fill="#8E45DC"/>
<path d="M30.8625 11.4545C30.8625 12.9119 30.5791 14.1413 30.0123 15.1428C29.4456 16.1399 28.6807 16.8963 27.7176 17.4119C26.7545 17.9233 25.6807 18.179 24.496 18.179C23.3028 18.179 22.2247 17.9212 21.2616 17.4055C20.3028 16.8857 19.54 16.1271 18.9733 15.13C18.4108 14.1286 18.1295 12.9034 18.1295 11.4545C18.1295 9.99716 18.4108 8.76989 18.9733 7.77273C19.54 6.77131 20.3028 6.01491 21.2616 5.50355C22.2247 4.98793 23.3028 4.73011 24.496 4.73011C25.6807 4.73011 26.7545 4.98793 27.7176 5.50355C28.6807 6.01491 29.4456 6.77131 30.0123 7.77273C30.5791 8.76989 30.8625 9.99716 30.8625 11.4545ZM27.2062 11.4545C27.2062 10.6705 27.1018 10.0099 26.893 9.47301C26.6885 8.93182 26.3838 8.52273 25.979 8.24574C25.5784 7.96449 25.0841 7.82386 24.496 7.82386C23.9079 7.82386 23.4115 7.96449 23.0067 8.24574C22.6061 8.52273 22.3014 8.93182 22.0926 9.47301C21.8881 10.0099 21.7858 10.6705 21.7858 11.4545C21.7858 12.2386 21.8881 12.9013 22.0926 13.4425C22.3014 13.9794 22.6061 14.3885 23.0067 14.6697C23.4115 14.9467 23.9079 15.0852 24.496 15.0852C25.0841 15.0852 25.5784 14.9467 25.979 14.6697C26.3838 14.3885 26.6885 13.9794 26.893 13.4425C27.1018 12.9013 27.2062 12.2386 27.2062 11.4545Z" fill="#8E45DC"/>
</svg>
